<svg xmlns="http://www.w3.org/2000/svg" viewBox="0 0 30 31" width="30" height="31" style="fill:#fff"><path class="shp0" d="M29 23.2L28.8 22.3 24.9 4 24.7 3.1 23.7 3.3 22.5 3.6C22.3 3.1 22 2.6 21.5 2.3 21.1 1.9 20.5 1.9 20.1 2.3 19.6 2.7 19.5 3.5 19.6 4.2 19.6 4.2 19.6 4.3 19.6 4.3L18.8 4.5C18.7 4.5 18.7 4.4 18.7 4.4 18.5 3.9 18.2 3.5 17.8 3.2 17.3 2.9 16.8 2.8 16.3 3.2 15.9 3.6 15.8 4.4 15.8 5 15.8 5.1 15.8 5.1 15.8 5.2 15.8 5.2 15.8 5.2 15.8 5.3L15 5.5C15 5.4 15 5.4 15 5.4 14.9 5.3 14.9 5.3 14.9 5.2 14.7 4.8 14.4 4.4 14 4.1 13.5 3.8 13 3.8 12.6 4.1 12.1 4.5 12 5.2 12 5.8 12 5.9 12 6 12 6 12 6.1 12 6.1 12 6.2L11.2 6.4C11.2 6.3 11.2 6.3 11.2 6.2 11.1 6.2 11.1 6.1 11.1 6 10.8 5.6 10.6 5.3 10.2 5.1 9.8 4.7 9.2 4.7 8.8 5.1 8.4 5.4 8.3 6 8.3 6.6 8.3 6.7 8.3 6.8 8.3 6.9 8.3 6.9 8.3 7 8.3 7.1L8.1 7.1 7.4 7.3C7.4 7.2 7.4 7.1 7.3 7.1 7.3 7 7.3 6.9 7.2 6.8 7 6.5 6.8 6.2 6.5 6 6 5.7 5.5 5.6 5 6 4.7 6.3 4.5 6.9 4.5 7.4 4.5 7.5 4.5 7.6 4.5 7.7 4.5 7.8 4.5 7.8 4.5 7.9L2.7 8.3 1 25.3 6.9 23.6 6.9 23.8 7 24 7.1 24.4 2.3 25.9 1 26.3 2.3 26.7 7.9 28.9 8 29 8 29 8 29 8.1 29 8.2 29 19.7 25.8 20.2 25.7 20.2 25.6 28.2 23.4 29 23.2ZM20.7 3C20.8 2.9 20.8 2.9 20.8 2.9 20.9 2.9 21 3 21.1 3.1 21.3 3.3 21.4 3.5 21.5 3.7 21.6 3.8 21.6 3.8 21.6 3.8L20.5 4.1C20.5 4.1 20.5 4 20.5 4 20.5 3.6 20.5 3.2 20.7 3ZM17 3.9C17 3.8 17 3.9 17 3.9 17.2 3.9 17.3 4 17.4 4.1 17.5 4.2 17.6 4.4 17.7 4.6 17.8 4.6 17.8 4.7 17.8 4.8L17.3 4.9 16.8 5C16.8 5 16.8 5 16.8 5 16.8 4.9 16.8 4.9 16.8 4.8 16.8 4.4 16.8 4.1 17 3.9ZM13 5.6C13 5.3 13.1 5 13.2 4.8 13.2 4.8 13.2 4.8 13.3 4.8 13.4 4.8 13.5 4.9 13.6 5 13.7 5.1 13.8 5.3 13.9 5.4 14 5.5 14 5.5 14 5.6 14 5.6 14.1 5.7 14.1 5.7L13 5.9C13 5.9 13 5.9 13 5.8 13 5.8 13 5.7 13 5.6ZM9.5 5.8C9.5 5.7 9.5 5.7 9.5 5.7 9.6 5.7 9.7 5.8 9.8 5.9 9.9 6 10 6.1 10.1 6.2 10.1 6.3 10.2 6.4 10.2 6.4 10.2 6.5 10.3 6.5 10.3 6.6 10.3 6.6 10.3 6.6 10.3 6.6L9.3 6.9C9.3 6.8 9.3 6.7 9.3 6.7 9.3 6.6 9.2 6.5 9.3 6.4 9.3 6.2 9.3 5.9 9.5 5.8ZM5.5 7.5C5.5 7.4 5.5 7.3 5.5 7.2 5.5 7 5.6 6.8 5.7 6.7 5.7 6.6 5.7 6.7 5.7 6.7 5.9 6.7 6 6.8 6.1 6.9 6.1 6.9 6.2 7 6.2 7.1 6.3 7.1 6.3 7.2 6.4 7.3 6.4 7.3 6.5 7.4 6.5 7.5L5.5 7.7C5.5 7.6 5.5 7.6 5.5 7.5ZM19.9 24.7L19.7 24.8 19.5 24.9 8.8 27.8 8.1 24.5 8 24.3 8 24.1 7.9 23.8 7.8 23.5 7.8 23.3 4.7 8.9 6.8 8.4C6.9 8.9 6.9 9.5 6.7 10 6.6 10.5 7.5 10.8 7.6 10.2 7.8 9.6 7.8 8.9 7.7 8.2L10.6 7.5C10.6 8 10.6 8.6 10.5 9 10.4 9.6 11.3 9.9 11.4 9.3 11.6 8.7 11.6 8 11.5 7.3L14.3 6.6C14.4 7.1 14.4 7.6 14.3 8.1 14.1 8.7 15 8.9 15.2 8.3 15.3 7.7 15.3 7 15.2 6.4L18.1 5.7C18.2 6.2 18.1 6.7 18 7.2 17.9 7.8 18.8 8 18.9 7.4 19.1 6.8 19.1 6.1 19 5.4L21.4 4.9 21.6 4.8 21.9 4.7C21.9 4.8 21.9 4.8 21.9 4.9 21.9 5.4 21.9 5.8 21.8 6.2 21.7 6.8 22.6 7.1 22.7 6.5 22.8 5.9 22.9 5.2 22.8 4.5L24 4.2 27.9 22.5 19.9 24.7ZM11.7 19.6L8.8 20.3 8.1 17.4 11 16.7 11.7 19.6ZM12.3 19.4L11.6 16.6 14.5 15.9 15.1 18.7 12.3 19.4ZM15.1 15.7L17.9 15 18.6 17.9 15.7 18.5 15.1 15.7ZM21.4 14.1L22.1 17 20.8 17.3 20.6 17.4 20.3 17.4 19.2 17.7 18.5 14.8 20.6 14.3 20.8 14.3 21.1 14.2 21.4 14.1ZM22 14L24.9 13.3 25.6 16.1 22.7 16.8 22 14ZM14.8 15.1L14.2 12.3 17 11.6 17.7 14.4 14.8 15.1ZM18.3 14.2L17.6 11.4 20.5 10.7 20.8 11.9 21 12.7 21.1 13.4 21.2 13.6 21.1 13.6 20.9 13.6 20.6 13.7 18.3 14.2ZM24 9.8L24.7 12.7 21.8 13.4 21.3 11.4 21.1 10.7 21.1 10.5 21.2 10.5 21.4 10.5 24 9.8ZM12.5 22.9L12.6 23 10.6 23.5 9.7 23.7 9.7 23.5 9.6 23.3 9.5 23 9.5 22.8 9 20.9 11.9 20.2 12.3 22 12.4 22.2 12.4 22.4 12.5 22.7 12.5 22.9ZM16 22L16 22.2 14.3 22.6 13.2 22.8 13.1 22.7 13.1 22.5 13 22.3 13 22 12.9 21.8 12.5 20 15.4 19.3 15.8 21 15.8 21.2 15.9 21.4 15.9 21.6 16 21.8 16 22ZM19.3 20.4L19.5 21.3 19 21.4 18.8 21.5 18.5 21.5 16.6 22 16.6 21.8 16.6 21.6 16.5 21.4 16.5 21.3 16.4 21 16.4 20.8 16 19.1 18.8 18.4 19.2 20 19.3 20.2 19.3 20.4Z"></path></svg>