<svg id="Layer_1" enable-background="new 0 0 512 512" height="512" viewBox="0 0 512 512" width="512" xmlns="http://www.w3.org/2000/svg"><g><path d="m488 312h-32c-13.23 0-24 10.77-24 24v96h-352v-96c0-13.23-10.77-24-24-24h-32c-13.23 0-24 10.77-24 24v136c0 22.06 17.94 40 40 40h432c22.06 0 40-17.94 40-40v-136c0-13.23-10.77-24-24-24z"/><path d="m151.03 186.34c9.36 9.36 24.58 9.36 33.94 0l23.03-23.03v212.69c0 13.23 10.77 24 24 24h48c13.23 0 24-10.77 24-24v-212.69l23.03 23.03c9.36 9.36 24.58 9.36 33.94 0l25.37-25.37c9.36-9.36 9.36-24.58 0-33.94l-124.68-124.69c-3.13-3.12-8.19-3.12-11.32 0l-124.68 124.69c-9.36 9.36-9.36 24.58 0 33.94z"/></g></svg>