<?xml version="1.0" encoding="iso-8859-1"?>
<!-- Generator: Adobe Illustrator 16.0.0, SVG Export Plug-In . SVG Version: 6.00 Build 0)  -->
<!DOCTYPE svg PUBLIC "-//W3C//DTD SVG 1.1//EN" "http://www.w3.org/Graphics/SVG/1.1/DTD/svg11.dtd">
<svg version="1.1" id="Layer_1" xmlns="http://www.w3.org/2000/svg" xmlns:xlink="http://www.w3.org/1999/xlink" x="0px" y="0px"
	 width="551.3px" height="178.396px" viewBox="0 0 551.3 178.396" style="enable-background:new 0 0 551.3 178.396;"
	 xml:space="preserve">
<g>
	<path style="fill-rule:evenodd;clip-rule:evenodd;" d="M258.324,130.976c-0.991-11.503-7.376-17.736-18.127-19.819
		c0-21.541-0.818-42.898,0.216-64.166c1.185-24.363,11.791-36.842,35.527-43.487c20.145-5.641,39.845-4.941,58.095,6.954
		c0.987,0.644,3.134,0.423,4.275-0.221c25.602-14.431,50.944-13.439,75.568,1.933c11.605,7.245,15.547,19.588,16.003,32.35
		c0.903,25.295,0.718,50.628,0.971,75.946c0.034,3.455,0.005,6.911,0.005,10.73c-7.325,0-14.156,0.5-20.882-0.133
		c-7.611-0.716-12.749-7.6-12.772-16.03c-0.054-19.831-0.014-39.662-0.023-59.493c-0.001-2.165-0.048-4.332-0.131-6.495
		c-0.521-13.571-9.121-21.685-22.815-21.546c-13.464,0.137-22.117,8.676-22.178,22.306c-0.112,25.496-0.034,50.994-0.034,76.491
		c0,1.474,0,2.948,0,4.723c-11.1,0-21.855,0-33.251,0c-0.082-1.793-0.243-3.696-0.244-5.6c-0.017-24.997-0.036-49.994,0.001-74.991
		c0.013-8.556-2.311-15.83-10.545-19.95c-8.533-4.271-16.998-4.171-25.229,0.824c-6.133,3.722-8.678,9.506-8.71,16.423
		c-0.119,25.661-0.133,51.323-0.186,76.985c-0.004,1.972,0,3.943,0,6.267C268.592,130.976,263.701,130.976,258.324,130.976z"/>
	<path style="fill-rule:evenodd;clip-rule:evenodd;" d="M201.854,115.306c-13.997,18.775-31.985,21.053-51.39,15.838
		c-16.042-4.311-25.71-16.422-31.01-31.494c-7.75-22.042-7.721-44.428,0.128-66.551c7.654-21.574,24.724-30.422,46.03-32.553
		c16.121-1.612,31.344,2.015,45.716,9.645c14.143,7.508,21.48,19.785,22.407,34.958c1.297,21.239,0.863,42.587,1.015,63.889
		c0.008,1.099-1.188,2.799-2.226,3.218c-8.842,3.57-13.727,9.844-13.433,19.507c0.296,9.74,5.909,15.504,14.781,18.551
		c0.289,0.1,0.513,0.385,0.744,0.565c0,8.971,0,17.916,0,27.331c-6.667,0-13.152,0.496-19.526-0.131
		c-7.365-0.725-13.11-7.962-13.19-15.863c-0.136-13.322-0.043-26.646-0.046-39.97C201.853,120.435,201.854,118.624,201.854,115.306z
		 M146.073,66.208c1.382,7.212,2.048,13.89,3.994,20.171c3.866,12.477,12.749,18.9,24.601,18.784
		c11.627-0.115,20.742-6.97,24.485-19.175c4.17-13.594,3.828-27.319-0.859-40.729c-3.771-10.789-11.865-16.538-22.411-16.76
		c-11.701-0.245-20.673,5.007-24.63,15.872C148.673,51.457,147.694,59.125,146.073,66.208z"/>
	<path style="fill-rule:evenodd;clip-rule:evenodd;" d="M469.921,88.621c0.801,8.473,5.177,14.307,13.441,16.65
		c10.23,2.902,20.494,3.54,29.763-2.799c5.635-3.854,5.413-11.121-0.585-14.387c-4.878-2.655-10.418-4.187-15.781-5.838
		c-12.201-3.759-24.727-6.61-36.643-11.1c-11.471-4.321-18.92-13.012-20.012-25.779c-1.257-14.682,3.584-27.052,15.883-35.582
		c14.078-9.765,30.234-10.73,46.539-8.876c7,0.796,14.11,2.695,20.607,5.43c15.39,6.477,22.173,19.21,23.703,35.716
		c-8.474,0-16.789,0.541-24.969-0.274c-3.145-0.313-6.593-3.189-8.846-5.807c-7.891-9.167-22.662-12.929-33.516-7.269
		c-2.624,1.368-4.742,4.931-5.715,7.932c-1.225,3.774,1.873,6.461,5.062,7.567c8.605,2.985,17.408,5.396,26.092,8.165
		c9.781,3.118,19.92,5.505,29.178,9.783c13.719,6.34,19.125,19.162,16.557,35.068c-2.512,15.557-11.1,26.358-25.988,31.254
		c-21.135,6.948-42.609,7.532-63.639-0.313c-16.327-6.092-25.529-22.165-23.637-39.542
		C448.134,88.621,458.887,88.621,469.921,88.621z"/>
	<path style="fill-rule:evenodd;clip-rule:evenodd;" d="M111.845,131.29c-6.776,0-13.097,0.264-19.385-0.071
		c-6.894-0.366-12.431-5.734-13.527-12.606c-0.338-2.123-0.397-4.309-0.4-6.466c-0.029-20.496,0.034-40.993-0.034-61.489
		C78.441,33.094,63.38,22.893,46.966,29.192C38.57,32.413,34.119,38.557,34.06,47.49c-0.169,25.826-0.149,51.653-0.203,77.48
		c-0.004,1.957,0,3.914,0,6.104c-11.461,0-22.372,0-33.836,0c0-1.936,0-3.714,0-5.492c0-24.162-0.078-48.325,0.064-72.487
		c0.029-4.968,0.625-9.971,1.394-14.89c3.01-19.277,16.046-28.987,33.369-34.45C54.298-2.379,72.9-0.234,90.877,9.265
		c10.346,5.467,16.178,14.186,18.741,25.187c1.314,5.64,2.241,11.506,2.296,17.28c0.242,25.493,0.105,50.99,0.098,76.486
		C112.012,129.032,111.926,129.846,111.845,131.29z"/>
	<path style="fill-rule:evenodd;clip-rule:evenodd;" d="M238.553,147.489c-8.986-0.003-16.545-7.517-16.548-16.449
		c-0.003-8.996,7.472-16.396,16.577-16.409c9.031-0.014,16.56,7.48,16.523,16.446C255.068,140.097,247.611,147.491,238.553,147.489z
		"/>
</g>
</svg>
